HIERARCHY
ROOT Hips
{
	OFFSET 0.00000 0.00000 0.00000
	CHANNELS 6 Xposition Yposition Zposition Zrotation Yrotation Xrotation 
	JOINT LHipJoint
	{
		OFFSET 0 0 0
		CHANNELS 3 Zrotation Yrotation Xrotation
		JOINT LeftHip
		{
			OFFSET 1.57358 -1.76629 0.73362
			CHANNELS 3 Zrotation Yrotation Xrotation
			JOINT LeftKnee
			{
				OFFSET 2.40600 -6.61045 0.00000
				CHANNELS 3 Zrotation Yrotation Xrotation
				JOINT LeftAnkle
				{
					OFFSET 2.66168 -7.31291 0.00000
					CHANNELS 3 Zrotation Yrotation Xrotation
					JOINT LeftToe
					{
						OFFSET 0.20870 -0.57341 2.12506
						CHANNELS 3 Zrotation Yrotation Xrotation
						End Site
						{
							OFFSET 0.00000 -0.00000 1.10557
						}
					}
				}
			}
		}
	}
	JOINT RHipJoint
	{
		OFFSET 0 0 0
		CHANNELS 3 Zrotation Yrotation Xrotation
		JOINT RightHip
		{
			OFFSET -1.49299 -1.76629 0.73362
			CHANNELS 3 Zrotation Yrotation Xrotation
			JOINT RightKnee
			{
				OFFSET -2.43663 -6.69460 0.00000
				CHANNELS 3 Zrotation Yrotation Xrotation
				JOINT RightAnkle
				{
					OFFSET -2.62959 -7.22474 0.00000
					CHANNELS 3 Zrotation Yrotation Xrotation
					JOINT RightToe
					{
						OFFSET -0.25784 -0.70841 2.21862
						CHANNELS 3 Zrotation Yrotation Xrotation
						End Site
						{
							OFFSET -0.00000 -0.00000 1.16452
						}
					}
				}
			}
		}
	}
	JOINT lowerback
	{
		OFFSET 0 0 0
		CHANNELS 3 Zrotation Yrotation Xrotation
		JOINT Chest
		{
			OFFSET -0.00034 2.12399 -0.25450
			CHANNELS 3 Zrotation Yrotation Xrotation
			JOINT Chest2
			{
				OFFSET 0.05594 2.14379 -0.03318
				CHANNELS 3 Zrotation Yrotation Xrotation
				JOINT lowerneck
				{
					OFFSET 0 0 0
					CHANNELS 3 Zrotation Yrotation Xrotation
					JOINT Neck
					{
						OFFSET -0.09835 1.62725 0.24211
						CHANNELS 3 Zrotation Yrotation Xrotation
						JOINT Head
						{
							OFFSET 0.10849 1.66041 -0.22648
							CHANNELS 3 Zrotation Yrotation Xrotation
							End Site
							{
								OFFSET 0.04385 1.68267 -0.10541
							}
						}
					}
				}
				JOINT LeftCollar
				{
					OFFSET 0 0 0
					CHANNELS 3 Zrotation Yrotation Xrotation
					JOINT LeftShoulder
					{
						OFFSET 3.29108 0.79398 -0.68179
CHANNELS 3 Zrotation Xrotation Yrotation
						JOINT LeftElbow
						{
OFFSET 0 -5.153100 -0.000000
CHANNELS 3 Zrotation Xrotation Yrotation
							JOINT LeftWrist
							{
OFFSET 0 -3.751380 -0.000000
CHANNELS 3 Zrotation Xrotation Yrotation
								JOINT lhand
								{
									OFFSET 0 0 0
CHANNELS 3 Zrotation Xrotation Yrotation
									JOINT LFingers
									{
OFFSET 0 -0.529170 0.000000
CHANNELS 3 Zrotation Xrotation Yrotation
										End Site
										{
OFFSET 0 -0.426630 0.000000
										}
									}
								}
								JOINT LThumb
								{
OFFSET 0 0.000000 0.000000
CHANNELS 3 Zrotation Xrotation Yrotation
									End Site
									{
OFFSET 0 -0.433150 0.433150
									}
								}
							}
						}
					}
				}
				JOINT RightCollar
				{
					OFFSET 0 0 0
					CHANNELS 3 Zrotation Yrotation Xrotation
					JOINT RightShoulder
					{
						OFFSET -3.07414 1.06285 -0.44338
CHANNELS 3 Zrotation Xrotation Yrotation
						JOINT RightElbow
						{
OFFSET 0 -5.296130 0.000000
CHANNELS 3 Zrotation Xrotation Yrotation
							JOINT RightWrist
							{
OFFSET 0 -3.761440 -0.000000
CHANNELS 3 Zrotation Xrotation Yrotation
								JOINT rhand
								{
									OFFSET 0 0 0
CHANNELS 3 Zrotation Xrotation Yrotation
									JOINT RFingers
									{
OFFSET 0 -0.747320 0.000000
CHANNELS 3 Zrotation Xrotation Yrotation
										End Site
										{
OFFSET 0 -0.602510 0.000000
										}
									}
								}
								JOINT RThumb
								{
OFFSET 0 0.000000 0.000000
CHANNELS 3 Zrotation Xrotation Yrotation
									End Site
									{
OFFSET 0 -0.611710 0.611710
									}
								}
							}
						}
					}
				}
			}
		}
	}
}
MOTION
Frames: 9
Frame Time: 0.008333333333333333
1.785600 16.557800 -24.159500 1.547600 -0.683300 -7.487100 0.000000 0.000000 0.000000 -20.886800 -7.820300 -24.907300 6.241600 14.658400 45.943700 0.289300 -2.983200 -9.569800 0.021100 -0.937000 -2.575500 0.000000 0.000000 0.000000 19.223700 6.001600 -6.008200 -19.950200 -19.999900 89.854300 0.775700 -15.976400 -1.275300 -0.369400 -3.904200 10.807200 -2.027400 1.392800 12.563900 2.053700 1.682900 2.515500 3.024000 0.867700 -4.520000 -9.116000 -4.007100 -13.928700 6.468300 -4.584500 12.993200 3.117900 -2.139800 6.606800 0.000000 -0.000000 0.000000 0.378100 30.609600 -39.918600 115.443500 -57.406700 81.842900 17.692800 -27.469900 -8.355500 0.000000 0.000000 0.000000 -7.125000 0.000000 0.000000 -7.918200 38.630200 -1.251600 0.000000 -0.000000 0.000000 -3.509200 15.388400 45.203000 -140.807900 -47.583900 -102.159500 -18.272500 -18.471100 -30.673200 0.000000 0.000000 0.000000 7.125000 0.000000 -0.000000 7.437400 -1.771300 7.728400
1.783017 16.536384 -23.962266 2.164016 -0.968225 -7.496715 0.000000 0.000000 0.000000 -21.588165 -7.416693 -24.485337 6.370891 14.776725 46.449698 0.352078 -2.930077 -10.525773 0.015816 -0.791141 -2.174357 0.000000 0.000000 0.000000 18.124649 6.436318 -7.251680 -20.285506 -19.993940 90.834908 0.740775 -15.516015 -1.659755 -0.342262 -3.754884 10.388535 -2.645445 1.474014 12.606931 1.867631 1.698396 2.581536 3.176018 0.880454 -4.486744 -9.171348 -3.974678 -14.438910 6.582055 -4.513338 13.301329 3.168679 -2.091167 6.791478 0.000000 0.000000 0.000000 0.428442 29.445903 -40.093703 114.690482 -57.561936 81.207055 17.613970 -27.748904 -8.579911 0.000000 0.000000 0.000000 -7.125000 0.000000 0.000000 -8.021466 38.856638 -1.222317 0.000000 0.000000 0.000000 -3.058113 15.632360 44.786639 -139.718901 -48.215812 -101.345294 -18.390507 -18.251616 -30.756401 0.000000 0.000000 0.000000 7.125000 0.000000 0.000000 7.379708 -1.877029 7.680522
1.780435 16.514968 -23.765032 2.780432 -1.253149 -7.506331 0.000000 0.000000 0.000000 -22.289530 -7.013087 -24.063373 6.500182 14.895049 46.955697 0.414856 -2.876954 -11.481747 0.010531 -0.645281 -1.773214 0.000000 0.000000 0.000000 17.025597 6.871035 -8.495161 -20.620812 -19.987980 91.815515 0.705850 -15.055630 -2.044211 -0.315125 -3.605568 9.969869 -3.263490 1.555228 12.649961 1.681562 1.713892 2.647572 3.328036 0.893209 -4.453487 -9.226696 -3.942256 -14.949120 6.695811 -4.442177 13.609457 3.219457 -2.042534 6.976157 0.000000 0.000000 0.000000 0.478783 28.282206 -40.268806 113.937465 -57.717173 80.571209 17.535140 -28.027909 -8.804323 0.000000 0.000000 0.000000 -7.125000 0.000000 0.000000 -8.124732 39.083075 -1.193034 0.000000 0.000000 0.000000 -2.607025 15.876320 44.370278 -138.629902 -48.847724 -100.531087 -18.508513 -18.032131 -30.839601 0.000000 0.000000 0.000000 7.125000 0.000000 0.000000 7.322016 -1.982758 7.632644
1.777583 16.496528 -23.568815 3.217821 -1.544486 -7.459694 0.000000 0.000000 0.000000 -22.810120 -6.571332 -23.728092 6.623156 15.005387 47.432935 0.474696 -2.696736 -12.354993 0.038825 -0.969501 -2.668575 0.000000 0.000000 0.000000 16.145967 7.302738 -9.780667 -20.900307 -19.979428 92.633280 0.673094 -14.622661 -2.439072 -0.336694 -3.709655 10.263513 -3.689395 1.595530 12.629253 1.535099 1.704660 2.672504 3.417466 0.892140 -4.422170 -9.276246 -3.876735 -15.335825 6.821565 -4.339568 13.889421 3.279010 -1.979406 7.128294 0.000000 0.000000 0.000000 0.529470 27.136383 -40.402689 113.153633 -57.870950 79.907948 17.532452 -28.326553 -8.910547 0.000000 0.000000 0.000000 -7.125000 0.000000 0.000000 -8.143869 39.192901 -1.174329 0.000000 0.000000 0.000000 -2.175059 16.191219 43.979989 -137.467199 -49.485779 -99.650742 -18.639882 -17.847377 -30.800219 0.000000 0.000000 0.000000 7.125000 0.000000 0.000000 7.241995 -1.967344 7.546368
1.774444 16.481270 -23.373687 3.463727 -1.842681 -7.352892 0.000000 0.000000 0.000000 -23.137360 -6.088776 -23.485523 6.739375 15.107183 47.879414 0.531395 -2.380582 -13.139757 0.103033 -1.796501 -4.950634 0.000000 0.000000 0.000000 15.501023 7.731218 -11.111123 -21.120109 -19.968105 93.276873 0.642658 -14.219014 -2.845063 -0.410359 -4.084773 11.319017 -3.909793 1.592073 12.540370 1.430999 1.668979 2.653472 3.439955 0.876286 -4.392926 -9.319594 -3.775814 -15.590433 6.960153 -4.203324 14.139262 3.347946 -1.900774 7.245625 0.000000 0.000000 0.000000 0.580527 26.009678 -40.492485 112.336844 -58.023167 79.215364 17.611202 -28.646204 -8.890363 0.000000 0.000000 0.000000 -7.125000 0.000000 0.000000 -8.073025 39.178001 -1.166939 0.000000 0.000000 0.000000 -1.763546 16.581992 43.617585 -136.225666 -50.130406 -98.699655 -18.785543 -17.699769 -30.629725 0.000000 0.000000 0.000000 7.125000 0.000000 0.000000 7.138094 -1.822359 7.419024
1.771306 16.466013 -23.178559 3.709634 -2.140877 -7.246090 0.000000 0.000000 0.000000 -23.464600 -5.606220 -23.242954 6.855593 15.208978 48.325892 0.588094 -2.064427 -13.924521 0.167242 -2.623502 -7.232692 0.000000 0.000000 0.000000 14.856079 8.159697 -12.441579 -21.339912 -19.956781 93.920467 0.612223 -13.815368 -3.251053 -0.484024 -4.459891 12.374521 -4.130192 1.588616 12.451488 1.326899 1.633299 2.634440 3.462444 0.860433 -4.363683 -9.362943 -3.674892 -15.845042 7.098742 -4.067080 14.389102 3.416883 -1.822143 7.362956 0.000000 0.000000 0.000000 0.631584 24.882972 -40.582282 111.520055 -58.175383 78.522780 17.689953 -28.965855 -8.870178 0.000000 0.000000 0.000000 -7.125000 0.000000 0.000000 -8.002181 39.163101 -1.159548 0.000000 0.000000 0.000000 -1.352032 16.972765 43.255182 -134.984132 -50.775032 -97.748569 -18.931204 -17.552162 -30.459231 0.000000 0.000000 0.000000 7.125000 0.000000 0.000000 7.034192 -1.677373 7.291680
1.762791 16.451216 -22.990035 3.961032 -2.153089 -7.197729 0.000000 0.000000 0.000000 -23.772565 -5.431841 -22.712251 6.968126 15.303862 48.751751 0.692905 -2.206583 -15.062656 0.125166 -2.209999 -6.089056 0.000000 0.000000 0.000000 14.220619 8.280422 -13.782325 -21.515519 -19.943729 94.435314 0.578985 -13.394443 -3.811478 -0.590518 -4.889418 13.599588 -4.414867 1.498996 12.531477 1.230747 1.467183 2.542414 3.548596 0.786216 -4.492598 -9.349655 -3.557076 -15.765401 7.142565 -3.927341 14.458168 3.446731 -1.752573 7.359835 0.000000 0.000000 0.000000 0.672043 23.875183 -40.628612 110.770615 -58.301452 77.884951 17.839854 -29.047981 -9.225059 0.000000 0.000000 0.000000 -7.125000 0.000000 0.000000 -7.931683 39.542964 -1.075594 0.000000 0.000000 0.000000 -1.019272 17.383812 42.926337 -133.419332 -51.486930 -96.521099 -18.958370 -17.302417 -30.128351 0.000000 0.000000 0.000000 7.125000 0.000000 0.000000 6.979632 -1.347351 7.195246
1.754089 16.436436 -22.801741 4.212621 -2.155353 -7.151400 0.000000 0.000000 0.000000 -24.079859 -5.268182 -22.171526 7.080530 15.398506 49.176893 0.799389 -2.364680 -16.213082 0.079394 -1.753349 -4.826265 0.000000 0.000000 0.000000 13.585488 8.390443 -15.123429 -21.689588 -19.930617 94.945683 0.545649 -12.972917 -4.377274 -0.698155 -5.320838 14.830552 -4.701778 1.406378 12.617339 1.134872 1.296531 2.447850 3.636962 0.709968 -4.627015 -9.334398 -3.438672 -15.674135 7.183093 -3.787482 14.520946 3.475219 -1.683319 7.352524 0.000000 0.000000 0.000000 0.712133 22.871531 -40.673431 110.023518 -58.426610 77.249026 17.992229 -29.121844 -9.592986 0.000000 0.000000 0.000000 -7.125000 0.000000 0.000000 -7.861197 39.936558 -0.988976 0.000000 0.000000 0.000000 -0.689250 17.795563 42.598660 -131.843287 -52.201169 -95.284016 -18.981416 -17.049120 -29.791893 0.000000 0.000000 0.000000 7.125000 0.000000 0.000000 6.926787 -1.010893 7.099887
1.745388 16.423155 -22.613697 4.359103 -2.157064 -7.055126 0.000000 0.000000 0.000000 -24.271686 -5.128494 -21.656845 7.174286 15.476609 49.530011 0.897817 -2.498037 -17.218960 0.054879 -1.511307 -4.156851 0.000000 0.000000 0.000000 13.096907 8.509269 -16.518837 -21.820305 -19.920238 95.329045 0.519405 -12.647530 -4.762332 -0.744807 -5.511910 15.374841 -4.862415 1.317102 12.653239 1.056824 1.149779 2.342425 3.669220 0.644028 -4.745372 -9.307637 -3.349939 -15.568757 7.224853 -3.691154 14.556143 3.496884 -1.634232 7.337389 0.000000 0.000000 0.000000 0.775124 21.818236 -40.743240 109.291086 -58.543873 76.624730 18.126313 -29.086010 -10.048459 0.000000 0.000000 0.000000 -7.125000 0.000000 0.000000 -7.823418 40.420146 -0.889586 0.000000 0.000000 0.000000 -0.323592 18.197205 42.191832 -130.232963 -52.881342 -94.006597 -18.961732 -16.772047 -29.429051 0.000000 0.000000 0.000000 7.125000 0.000000 0.000000 6.896700 -0.639566 7.023999
